<svg width="20" height="19" viewBox="0 0 20 19" fill="none" xmlns="http://www.w3.org/2000/svg">
<g clip-path="url(#clip0_356_12114)">
<path d="M5.81395 0L0 3.76744L4.04651 7.02326L9.86046 3.39535L5.81395 0ZM0 10.186L5.81395 14L9.86046 10.6047L4.04651 7.02326L0 10.186ZM9.86046 10.6047L13.9535 14L19.7209 10.2326L15.7209 7.02326L9.86046 10.6047V10.6047ZM19.7209 3.76744L13.9535 0L9.86046 3.39535L15.7209 7.02326L19.7209 3.76744ZM9.90697 11.3488L5.81395 14.7442L4.09302 13.5814V14.8837L9.90697 18.3721L15.7209 14.8837V13.5814L13.9535 14.7442L9.90697 11.3488Z" fill="#0056FE"/>
</g>
<defs>
<clipPath id="clip0_356_12114">
<rect width="20" height="18.6047" fill="white"/>
</clipPath>
</defs>
</svg>
