<svg width="14" height="15" viewBox="0 0 14 15" fill="none" xmlns="http://www.w3.org/2000/svg">
<path d="M4.66667 5.5V2.16667C4.66667 1.52233 5.18934 1 5.83333 1C6.47733 1 7 1.52233 7 2.16667V5.5M7 4.33333V3.16667C7 2.52233 7.52267 2 8.16667 2C8.81067 2 9.33333 2.52233 9.33333 3.16667V4.33333M9.33333 3.75V3.16667C9.33333 2.52233 9.856 2 10.5 2C11.144 2 11.6667 2.52233 11.6667 3.16667V6.08333C11.6667 6.08333 11.6667 8.16667 11.6667 9.33333C11.6667 11.6667 9.91667 14 7 14C4.08333 14 2.33333 12.25 2.33333 9.33333V7.58333C2.33333 6.93933 2.856 6.41667 3.5 6.41667C4.144 6.41667 4.66667 6.93933 4.66667 7.58333V5.5" stroke="#111827" stroke-width="1.2" stroke-linecap="round" stroke-linejoin="round"/>
</svg>
