<svg width="12" height="12" viewBox="0 0 12 12" fill="none" xmlns="http://www.w3.org/2000/svg">
<path d="M5.5 2H3.9C3.05992 2 2.63988 2 2.31901 2.16349C2.03677 2.3073 1.8073 2.53677 1.66349 2.81901C1.5 3.13988 1.5 3.55992 1.5 4.4V8.1C1.5 8.94008 1.5 9.36012 1.66349 9.68099C1.8073 9.96323 2.03677 10.1927 2.31901 10.3365C2.63988 10.5 3.05992 10.5 3.9 10.5H7.6C8.44008 10.5 8.86012 10.5 9.18099 10.3365C9.46323 10.1927 9.6927 9.96323 9.83651 9.68099C10 9.36012 10 8.94008 10 8.1V6.5M10.0607 1.93934C10.6464 2.52513 10.6464 3.47487 10.0607 4.06066C9.47487 4.64645 8.52513 4.64645 7.93934 4.06066C7.35355 3.47487 7.35355 2.52513 7.93934 1.93934C8.52513 1.35355 9.47487 1.35355 10.0607 1.93934Z" stroke="#2546F5" stroke-width="1.2" stroke-linecap="round" stroke-linejoin="round"/>
</svg>
